<svg viewBox="0 0 24 24" xmlns="http://www.w3.org/2000/svg">

  <defs>
    <style>
      .sprite { display: none; }
      .sprite:target { display: inline; }
    </style>
  </defs>

  <g class="sprite" id="angular">
    <path d="M12.0001 1.5L2.22461 4.986L3.71561 17.9115L12.0001 22.5L20.2846 17.9115L21.7756 4.986L12.0001 1.5Z" fill="#DD0031"/>
    <path d="M12 1.5V3.831V3.8205V14.457V22.5L20.2845 17.9115L21.7755 4.986L12 1.5Z" fill="#C3002F"/>
    <path d="M12.0002 3.82056L5.88916 17.5231H8.16766L9.39616 14.4571H14.5832L15.8117 17.5231H18.0902L12.0002 3.82056ZM13.7852 12.5671H10.2152L12.0002 8.27256L13.7852 12.5671Z" fill="white"/>
  </g>

  <g class="sprite" id="bootstrap">
    <rect width="24" height="24" fill="#7B11F9"/>
    <path d="M12 24L7 19V5L15.5 6L24 14.5V24H12Z" fill="#620EC7"/>
    <path d="M13.8476 12.8325C13.4121 12.6767 12.7852 12.7101 11.9669 12.7101H8.6792V17.3768H12.1951C12.7444 17.3768 13.1302 17.3129 13.3524 17.2683C13.744 17.192 14.0715 17.0443 14.3346 16.8661C14.5974 16.6884 14.8137 16.4187 14.9835 16.0787C15.1529 15.7386 15.2378 15.3407 15.2378 14.8958C15.2378 14.3747 15.115 13.9746 14.8693 13.5899C14.6237 13.2052 14.2832 12.9883 13.8476 12.8325ZM13.3963 10.6988C13.8286 10.5592 14.1545 10.3153 14.3737 9.9913C14.5931 9.66707 14.7027 9.25458 14.7027 8.76499C14.7027 8.30116 14.6002 7.88968 14.3956 7.53664C14.1909 7.18359 13.8989 7.04704 13.5188 6.91658C13.1388 6.78652 12.4871 6.82609 11.5635 6.82609H8.6792V10.8841H11.774C12.5281 10.8841 13.0686 10.807 13.3963 10.6988ZM16.6186 16.7164C16.3645 17.279 16.0501 17.7128 15.676 18.018C15.3018 18.3231 14.8325 18.582 14.2685 18.7379C13.7047 18.8939 13.0132 19 12.1951 19H7V5H12.116C13.0981 5 13.8856 5.12357 14.479 5.4062C15.0725 5.68925 15.537 6.11574 15.8734 6.70374C16.2095 7.29174 16.3776 7.90226 16.3776 8.54423C16.3776 9.14177 16.2283 9.70238 15.9303 10.2299C15.6322 10.7579 15.182 11.1823 14.5801 11.5066C15.3574 11.7545 15.9552 12.1769 16.3731 12.7743C16.791 13.3718 17 14.0773 17 14.8909C17 15.5457 16.8729 16.1539 16.6186 16.7164Z" fill="white"/>
  </g>

  <g class="sprite" id="css3">
    <rect width="24" height="24" fill="#1572B6"/>
    <path d="M9.5 24L4.5 19L21 3L24 6V24H9.5Z" fill="#0F5182"/>
    <path d="M4.63756 19.2006L3 3H21L19.3603 19.1981L11.9891 21L4.63756 19.2006Z" fill="white"/>
    <path d="M11.9942 10.2891H14.636L14.8181 8.11918H11.9942V6H12.0013H17L16.462 12.4083H11.9942V10.2891Z" fill="#1572B6"/>
    <path d="M12.0064 15.7924L11.9974 15.7951L9.77415 15.1575L9.63205 13.4675H7.62779L7.90747 16.7947L11.9967 18L12.0064 17.9973V15.7924Z" fill="#1572B6"/>
    <path d="M14.4661 12.3185L14.2259 15.1562L11.9994 15.7938V17.9986L16.0919 16.7947L16.4691 12.3185H14.4661Z" fill="#1572B6"/>
    <path d="M12.0013 6L12.0013 8.11918H7.17892L7 6H12.0013Z" fill="#1572B6"/>
    <path d="M11.9942 10.2891L11.9942 12.4028L11.9942 12.4083L9.7987 12.4083L9.62043 10.2891L11.9942 10.2891Z" fill="#1572B6"/>
  </g>

  <g class="sprite" id="evernote">
    <g clip-path="url(#clip0)">
    <path d="M24 0H0V24H24V0Z" fill="#15913B"/>
    <path opacity="0.25" d="M15.9976 10.4175C16.7713 10.4175 17.0431 11.2951 17.0431 11.7495C16.8148 11.7495 16.1378 11.496 15.7231 11.496C15.458 11.496 15.1862 11.5635 15.0391 11.5635C15.0391 11.0239 15.4569 10.4175 15.9976 10.4175Z" fill="black"/>
    <path opacity="0.3" d="M18.8683 5.22302L18.8668 5.22452C15.6916 7.60793 8.28949 13.042 5.78076 14.658L15.1213 24H23.9998V10.3545L18.8683 5.22302Z" fill="black"/>
    <path opacity="0.3" d="M7.98427 3.375C7.98427 3.375 6.91176 4.9357 6.70662 5.1206C6.37312 5.4212 5.62323 5.95978 4.80127 6.576L5.25277 7.0275H5.25577C6.22887 7.29383 7.52407 7.13557 8.64127 7.14565C8.46282 6.41043 9.03932 4.49765 8.43877 3.82951L7.98427 3.37501V3.375Z" fill="black"/>
    <path d="M10.7058 2.87992C10.6546 2.8805 10.6035 2.88197 10.5513 2.88292C10.3006 2.88754 10.0341 2.90096 9.72929 2.91892C9.26848 2.94607 8.39579 3.4812 8.39579 4.05442V6.31042C8.39579 6.56189 8.02776 6.94192 7.77629 6.94192C7.02374 6.94192 6.17644 6.94642 5.63129 6.94642C5.22226 6.94642 4.70923 7.29103 4.51829 7.64842C4.38723 7.89373 4.37022 8.43189 4.37279 8.79892C4.59537 10.6589 4.95803 12.5155 5.54129 14.2829C5.65414 14.6249 5.95499 14.8243 6.24629 14.9789C6.9443 15.3495 10.5444 15.9758 10.9023 15.9584C11.4638 15.9886 11.7899 15.1503 11.9718 14.1644C12.0301 13.8485 11.9972 12.9048 12.0393 12.8204C12.0589 12.7811 12.148 12.7823 12.1698 12.8204C12.2154 12.9002 12.1911 13.5572 12.2463 13.8929C12.3022 14.2331 12.5916 14.8632 13.3263 15.0524C14.1432 15.2628 14.874 15.2699 15.6513 15.4244C16.5978 15.6126 16.7103 17.0128 16.7103 17.2589V18.4364C16.7103 18.6998 16.3501 19.2659 15.8073 19.2659C15.2423 19.2659 14.7767 19.2734 14.1483 19.2734C13.8199 19.2734 13.5003 18.9841 13.5003 18.6644V18.2384C13.5003 18.0245 13.889 17.7464 14.1768 17.7464C14.4612 17.7464 14.6927 17.7434 14.8248 17.7434L14.8308 17.4869C14.7986 17.3667 14.7993 17.3213 14.7993 17.1584C14.7993 17.0113 14.8248 16.7729 14.9223 16.6754C14.9223 16.6075 14.9253 16.5937 14.9253 16.5014C14.6692 16.5014 14.0219 16.5059 13.4808 16.5059C13.2554 16.5059 13.0018 16.587 12.8073 16.7009C12.5044 16.8782 12.39 17.0141 12.1908 17.3534C12.0738 17.5526 11.9583 18.1034 11.9583 18.3344V19.1669C11.9583 19.4036 12.0716 19.9096 12.2013 20.1569C12.3233 20.3896 12.6334 20.6854 12.8718 20.7959C13.185 20.9411 13.5471 21.0541 13.7523 21.0644C14.0107 21.0774 14.9094 21.124 15.5043 21.1199C15.9413 21.1169 16.4037 21.1136 16.8108 21.0524C17.3895 20.9084 17.6835 20.7151 18.0543 20.2514C18.203 20.062 18.3029 19.8386 18.4038 19.6199C18.6327 19.1236 18.8084 18.5515 18.9453 18.0224C19.3301 16.5345 19.6587 13.6263 19.6203 12.0899C19.5988 11.2321 19.6104 10.429 19.5543 9.57142C19.4678 8.24844 19.341 6.03435 19.1493 5.61592C18.9943 5.27761 18.6675 5.00923 18.3273 4.85842C17.9391 4.68631 17.1276 4.47782 15.8868 4.35742C15.0682 4.27798 14.0808 4.30792 13.4133 4.30792C13.4133 3.84949 12.9895 3.3235 12.5088 3.13192C12.2894 3.04449 11.9975 2.95199 11.7708 2.93092C11.4487 2.90098 11.1588 2.88284 10.8573 2.87992C10.807 2.87943 10.757 2.87934 10.7058 2.87992ZM7.98479 3.37492L4.80179 6.57592C4.80179 6.57592 5.07342 6.39442 5.37029 6.39442C5.8243 6.39442 7.10771 6.39892 7.51079 6.39892C7.64986 6.34052 7.70685 6.30495 7.77629 6.19042V4.02592C7.77629 3.74975 7.98479 3.37492 7.98479 3.37492ZM15.9978 10.4174C16.7715 10.4174 17.0433 11.295 17.0433 11.7494C16.8151 11.7494 16.138 11.4959 15.7233 11.4959C15.4582 11.4959 15.1864 11.5634 15.0393 11.5634C15.0393 11.0239 15.4571 10.4174 15.9978 10.4174Z" fill="white"/>
    </g>
    <defs>
    <clipPath id="clip0">
    <rect width="24" height="24" fill="white"/>
    </clipPath>
    </defs>
  </g>

  <g class="sprite" id="figma">
    <rect width="24" height="24" fill="#333333"/>
    <path d="M24 11.5L15.5 3L7 20L11 24H13H24V11.5Z" fill="#212121"/>
    <path d="M9 21C10.6569 21 12 19.6569 12 18V15H9C7.34315 15 6 16.3431 6 18C6 19.6569 7.34315 21 9 21Z" fill="#0ACF83"/>
    <path d="M6 12C6 10.3431 7.34315 9 9 9H12V15H9C7.34315 15 6 13.6569 6 12Z" fill="#A259FF"/>
    <path d="M6 6C6 4.34315 7.34315 3 9 3H12V9H9C7.34315 9 6 7.65686 6 6Z" fill="#F24E1E"/>
    <path d="M12 3H15C16.6569 3 18 4.34315 18 6C18 7.65686 16.6569 9 15 9H12V3Z" fill="#FF7262"/>
    <path d="M18 12C18 13.6569 16.6569 15 15 15C13.3431 15 12 13.6569 12 12C12 10.3431 13.3431 9 15 9C16.6569 9 18 10.3431 18 12Z" fill="#1ABCFE"/>
  </g>

  <g class="sprite" id="git">
    <path d="M22.5905 11.0202L12.9847 1.41499C12.4319 0.861831 11.5347 0.861831 10.981 1.41499L8.98675 3.4098L11.5169 5.93999C12.1051 5.74148 12.7793 5.87463 13.2479 6.34327C13.719 6.81487 13.8512 7.49474 13.6475 8.08485L16.086 10.5237C16.676 10.3203 17.3569 10.4517 17.8278 10.9237C18.4866 11.5819 18.4866 12.6491 17.8278 13.3077C17.169 13.9664 16.1022 13.9664 15.4431 13.3077C14.9478 12.812 14.8253 12.0844 15.0763 11.4741L12.8023 9.19989L12.8019 15.1848C12.9626 15.2641 13.114 15.3701 13.2479 15.5034C13.9065 16.1617 13.9065 17.2284 13.2479 17.8881C12.5893 18.5463 11.5218 18.5463 10.8639 17.8881C10.2055 17.2286 10.1515 16.1618 10.8097 15.5034C10.9725 15.3408 11.133 15.2179 11.3073 15.1357V9.09532C11.133 9.01306 10.9727 8.89106 10.8095 8.72741C10.3109 8.22897 10.2177 7.497 10.4735 6.88423L7.99301 4.38977L1.41326 10.9758C0.859927 11.5295 0.863413 12.4267 1.41675 12.98L11.0241 22.5852C11.5771 23.1384 12.475 23.1384 13.0288 22.5852L22.5898 13.0246C23.1431 12.4711 23.1437 11.5734 22.5905 11.0202Z" fill="#F34F29"/>
  </g>

  <g class="sprite" id="github">
    <rect width="24" height="24" fill="#635B5B"/>
    <path fill-rule="evenodd" clip-rule="evenodd" d="M14.9354 17.3601C15.492 18.1946 15.5205 19.146 15.5116 20.1106C15.5009 21.2786 15.5095 22.4466 15.5107 23.6147C15.5111 23.9898 15.5023 24 15.1503 24C13.6738 23.9998 12.1973 23.9999 10.7207 23.9999C10.3914 23.9999 10.3618 23.9673 10.3623 23.6251C10.3633 22.8802 10.3626 22.1352 10.3626 21.3504C10.1079 21.3773 9.85248 21.4056 9.5968 21.4313C8.34925 21.5563 7.26193 21.2262 6.42021 20.2167C6.3024 20.0754 6.20834 19.9118 6.1111 19.7534C5.68257 19.055 5.26755 18.3474 4.82389 17.6595C4.68657 17.4467 4.47402 17.286 4.29636 17.1009C4.20279 17.0035 4.11013 16.9051 4 16.7891C4.30783 16.582 4.60264 16.6384 4.88181 16.6829C5.57879 16.794 6.05 17.2408 6.42321 17.8336C6.60897 18.1286 6.80117 18.4295 7.03972 18.6766C7.80368 19.4682 8.73157 19.7236 9.78255 19.4768C10.4605 19.3176 10.329 19.3915 10.4303 18.7504C10.4979 18.3223 10.612 17.9145 10.8371 17.5448C10.8744 17.4835 10.9053 17.418 10.9513 17.3317C10.6538 17.2709 10.376 17.2222 10.1019 17.1567C9.01446 16.8972 8.0117 16.4583 7.21814 15.6146C6.37714 14.7202 5.92195 13.6492 5.89029 12.3922C5.86366 11.336 5.86993 10.2829 6.10098 9.24539C6.24927 8.57941 6.51738 7.98271 6.988 7.48787C7.06093 7.41115 7.10363 7.22943 7.06965 7.1293C6.73436 6.14096 6.78032 5.16394 7.09014 4.18127C7.1434 4.01227 7.19953 3.97154 7.36257 4.01766C7.96059 4.18687 8.47252 4.50629 8.8995 4.96412C9.19087 5.27654 9.45755 5.61379 9.74693 5.95363C10.4856 5.40119 11.3596 5.3818 12.222 5.32969C13.1754 5.27209 14.1296 5.28769 15.0665 5.49793C15.4304 5.57961 15.7764 5.74617 16.0999 5.86297C16.4799 5.48924 16.8723 5.10877 17.2587 4.7217C17.6076 4.37213 18.0209 4.15437 18.4871 4.02547C18.6655 3.97613 18.7561 4.02 18.8165 4.20029C19.1372 5.1568 19.1914 6.11291 18.8311 7.07176C18.7785 7.21162 18.7425 7.34322 18.8666 7.46605C19.4969 8.08998 19.8105 8.87564 19.8771 9.75607C19.9475 10.6858 20.0319 11.6234 19.9878 12.5513C19.9058 14.2733 19.0799 15.5664 17.6451 16.436C16.8758 16.9022 16.0359 17.1579 15.1587 17.2926C15.1084 17.3003 15.0577 17.3055 15.0081 17.3166C14.9881 17.3212 14.9707 17.3384 14.9354 17.3601Z" fill="white"/>
  </g>

  <g class="sprite" id="html5">
    <rect width="24" height="24" fill="#F16529"/>
    <path d="M12 24L4.5 19L21 3L24 5.5V24H12Z" fill="#C94422"/>
    <path d="M3 3L4.63894 19.2003L11.9955 21L19.3582 19.2011L21 3H3Z" fill="white"/>
    <path d="M16.8221 8.1177H12.0005H9.18191L9.36405 10.2878H12.0005H16.6407L16.0932 16.7957L12.0005 17.999L11.9973 18L7.90722 16.7957L7.62192 13.3919H9.62571L9.77424 15.1576L11.9978 15.7953L12.001 15.7944L14.2266 15.1567L14.4585 12.4081H12.001H7.5391L7 6H12.0005H17L16.8221 8.1177Z" fill="#E44D26"/>
  </g>

  <g class="sprite" id="illustrator">
    <rect width="24" height="24" fill="#3A3227"/>
    <path d="M24 19.5L11.5 7H9.5L5 18L11 24H24V19.5Z" fill="#211D16"/>
    <path d="M24 12L18 6L16.5 7V18L22.5 24H23H24V12Z" fill="#211D16"/>
    <path fill-rule="evenodd" clip-rule="evenodd" d="M8.11054 15.3567H12.0317L12.8961 17.873C12.9171 17.947 12.9909 17.9999 13.0647 17.9893H15.2677C15.3732 17.9893 15.4048 17.9365 15.3732 17.8202L11.5258 6.93028C11.5152 6.87742 11.4731 6.8457 11.3887 6.8457H8.69029H8.65867C8.60596 6.85628 8.5638 6.90914 8.57434 6.962C8.57434 7.1946 8.55326 7.4272 8.51109 7.64923C8.48122 7.73912 8.45664 7.8237 8.4336 7.90297C8.42412 7.93559 8.4149 7.96731 8.40569 7.99813L5.01155 17.799C4.97993 17.9259 5.01155 17.9893 5.1275 17.9893H7.10917C7.20403 17.9999 7.28836 17.9365 7.30944 17.8413L8.11054 15.3567ZM11.399 13.2105H8.72168C8.87979 12.7664 9.0379 12.2695 9.18548 11.7303C9.28989 11.403 9.39026 11.0757 9.48909 10.7535C9.5499 10.5552 9.61013 10.3588 9.67035 10.1655C9.81792 9.7109 9.93387 9.25628 10.0287 8.80165H10.0498C10.091 8.9431 10.1321 9.09112 10.175 9.24572C10.2091 9.36844 10.2444 9.49531 10.2817 9.62632C10.366 9.93293 10.4609 10.2395 10.5663 10.5673C10.619 10.7312 10.6691 10.8924 10.7192 11.0536C10.7692 11.2149 10.8193 11.3761 10.872 11.54C10.9669 11.8572 11.0617 12.1638 11.1566 12.4492C11.2515 12.7241 11.3358 12.9884 11.399 13.2105Z" fill="#FFA31A"/>
    <path fill-rule="evenodd" clip-rule="evenodd" d="M16.733 8.2837C16.986 8.52687 17.3233 8.66432 17.6712 8.65375C18.0295 8.67489 18.3879 8.53745 18.6304 8.2837C18.8833 8.01938 19.0098 7.67049 18.9993 7.31101C19.0098 6.96212 18.8833 6.62379 18.6514 6.37004C18.4195 6.12687 18.1033 6 17.6922 6C17.3444 6 17.0071 6.12687 16.7541 6.37004C16.5011 6.61322 16.3641 6.95154 16.3746 7.31101C16.3641 7.67049 16.4906 8.01938 16.733 8.2837ZM16.4907 9.68993V17.8309C16.4907 17.9366 16.5434 18.0001 16.6488 18.0001H18.7148C18.8097 18.0001 18.8519 17.9472 18.8519 17.8309V9.68993C18.8519 9.59478 18.8097 9.54192 18.7148 9.54192H16.6278C16.5329 9.54192 16.4907 9.58421 16.4907 9.68993Z" fill="#FFA31A"/>
  </g>

  <g class="sprite" id="instagram">
    <rect width="24" height="24" fill="#F09433"/>
    <rect width="24" height="24" fill="url(#paint0_radial)"/>
    <path d="M12 4C9.82667 4 9.55533 4.01 8.702 4.048C7.85 4.088 7.27 4.222 6.76 4.42C6.234 4.624 5.78733 4.898 5.34267 5.34267C4.898 5.78733 4.62333 6.23333 4.42 6.76C4.222 7.27 4.08733 7.85 4.048 8.702C4.008 9.55533 4 9.82667 4 12C4 14.1733 4.01 14.4447 4.048 15.298C4.088 16.1493 4.222 16.73 4.42 17.24C4.624 17.7653 4.898 18.2127 5.34267 18.6573C5.78733 19.1013 6.23333 19.3767 6.76 19.58C7.27067 19.7773 7.85067 19.9127 8.702 19.952C9.55533 19.992 9.82667 20 12 20C14.1733 20 14.4447 19.99 15.298 19.952C16.1493 19.912 16.73 19.7773 17.24 19.58C17.7653 19.376 18.2127 19.1013 18.6573 18.6573C19.1013 18.2127 19.3767 17.7673 19.58 17.24C19.7773 16.73 19.9127 16.1493 19.952 15.298C19.992 14.4447 20 14.1733 20 12C20 9.82667 19.99 9.55533 19.952 8.702C19.912 7.85067 19.7773 7.26933 19.58 6.76C19.376 6.234 19.1013 5.78733 18.6573 5.34267C18.2127 4.898 17.7673 4.62333 17.24 4.42C16.73 4.222 16.1493 4.08733 15.298 4.048C14.4447 4.008 14.1733 4 12 4ZM12 5.44C14.1353 5.44 14.39 5.45067 15.2333 5.48733C16.0133 5.524 16.4367 5.65333 16.718 5.764C17.0927 5.90867 17.358 6.082 17.6393 6.36133C17.9187 6.64133 18.092 6.90733 18.2367 7.282C18.346 7.56333 18.4767 7.98667 18.512 8.76667C18.55 9.61067 18.5587 9.864 18.5587 12C18.5587 14.136 18.5487 14.39 18.5093 15.2333C18.4687 16.0133 18.3387 16.4367 18.2287 16.718C18.0793 17.0927 17.9093 17.358 17.6293 17.6393C17.35 17.9187 17.08 18.092 16.7093 18.2367C16.4293 18.346 15.9993 18.4767 15.2193 18.512C14.37 18.55 14.12 18.5587 11.98 18.5587C9.83933 18.5587 9.58933 18.5487 8.74067 18.5093C7.96 18.4687 7.53 18.3387 7.25 18.2287C6.87067 18.0793 6.61 17.9093 6.33067 17.6293C6.05 17.35 5.87067 17.08 5.73067 16.7093C5.62067 16.4293 5.49133 15.9993 5.45067 15.2193C5.42067 14.3793 5.41 14.12 5.41 11.99C5.41 9.85933 5.42067 9.59933 5.45067 8.74933C5.49133 7.96933 5.62067 7.54 5.73067 7.26C5.87067 6.88 6.05 6.62 6.33067 6.33933C6.61 6.06 6.87067 5.88 7.25 5.74067C7.53 5.63 7.95067 5.5 8.73067 5.46C9.58067 5.43 9.83067 5.42 11.97 5.42L12 5.44ZM12 7.892C9.73 7.892 7.892 9.732 7.892 12C7.892 14.27 9.732 16.108 12 16.108C14.27 16.108 16.108 14.268 16.108 12C16.108 9.73 14.268 7.892 12 7.892ZM12 14.6667C10.5267 14.6667 9.33333 13.4733 9.33333 12C9.33333 10.5267 10.5267 9.33333 12 9.33333C13.4733 9.33333 14.6667 10.5267 14.6667 12C14.6667 13.4733 13.4733 14.6667 12 14.6667ZM17.2307 7.73C17.2307 8.26 16.8 8.69 16.2707 8.69C15.7407 8.69 15.3107 8.25933 15.3107 7.73C15.3107 7.20067 15.7413 6.77067 16.2707 6.77067C16.7993 6.77 17.2307 7.20067 17.2307 7.73Z" fill="white"/>
    <defs>
    <radialGradient id="paint0_radial" cx="0" cy="0" r="1" gradientUnits="userSpaceOnUse" gradientTransform="translate(-7.15256e-07 24) rotate(-44.3969) scale(33.5894)">
    <stop stop-color="#F09433"/>
    <stop offset="0.220148" stop-color="#F1693B"/>
    <stop offset="0.497335" stop-color="#E43D5E"/>
    <stop offset="0.786458" stop-color="#C33391"/>
    <stop offset="1" stop-color="#9138C1"/>
    </radialGradient>
    </defs>
  </g>

  <g class="sprite" id="javascript">
    <path d="M0 0H24V24H0V0Z" fill="#F7DF1E"/>
    <path d="M24 21.8438L13.0312 10.875H11.25V20.4844L7.3125 21.375L10.2656 24H24V21.8438Z" fill="#DAC40F"/>
    <path d="M24 15.0469L20.6719 11.7188H16.6406V22.875H24V15.0469Z" fill="#DAC40F"/>
    <path d="M6.28134 20.0628L8.11791 18.9513C8.47228 19.5795 8.79459 20.1111 9.56775 20.1111C10.3088 20.1111 10.7762 19.8212 10.7762 18.6936V10.875H13.0315V18.7254C13.0315 21.0614 11.6622 22.1247 9.66441 22.1247C7.86019 22.1247 6.81291 21.1903 6.28125 20.0626L6.28134 20.0628ZM14.2566 19.8211L16.0929 18.7579C16.5764 19.5473 17.2047 20.1273 18.3162 20.1273C19.2508 20.1273 19.8467 19.66 19.8467 19.0156C19.8467 18.2423 19.2345 17.9684 18.2034 17.5175L17.6397 17.2756C16.0125 16.5831 14.9332 15.6987 14.9332 13.8621C14.9332 12.1705 16.2219 10.8816 18.2358 10.8816C19.6696 10.8816 20.7007 11.3811 21.4417 12.686L19.6855 13.8139C19.2988 13.1211 18.8801 12.8473 18.2357 12.8473C17.5751 12.8473 17.1563 13.2662 17.1563 13.8139C17.1563 14.4904 17.5751 14.7788 18.5417 15.1977L19.1055 15.4393C21.0227 16.261 22.102 17.0987 22.102 18.9834C22.102 21.0135 20.5072 22.125 18.3645 22.125C16.2702 22.125 14.9169 21.1262 14.2565 19.8212" fill="black"/>
  </g>

  <g class="sprite" id="linkedin">
    <rect width="24" height="24" fill="#0077B5"/>
    <path d="M6 7V18L12 24H24V22.5L7.5 6L6 7Z" fill="#005682"/>
    <path d="M24 17.5L16.5 10H14.5L12.5 12V24H24V17.5Z" fill="#005582"/>
    <path fill-rule="evenodd" clip-rule="evenodd" d="M8.89356 7.39853C8.89356 8.17595 8.33501 8.79802 7.43818 8.79802H7.42174C6.55824 8.79802 6 8.17595 6 7.39853C6 6.60466 6.57524 6 7.45513 6C8.33501 6 8.87687 6.60466 8.89356 7.39853ZM8.72392 9.90318V17.9998H6.15186V9.90318H8.72392ZM18 17.9998L18.0001 13.3574C18.0001 10.8705 16.7312 9.71303 15.0387 9.71303C13.6731 9.71303 13.0617 10.4989 12.7203 11.0502V9.90337H10.1479C10.1819 10.6631 10.1479 18 10.1479 18H12.7203V13.4782C12.7203 13.2362 12.737 12.9948 12.805 12.8216C12.9909 12.3381 13.4142 11.8376 14.1247 11.8376C15.0558 11.8376 15.428 12.5801 15.428 13.6681V17.9998H18Z" fill="white"/>
  </g>

  <g class="sprite" id="mail">
    <rect width="24" height="24" fill="#1572B6"/>
    <path d="M24 14L17 7V8H6V16L14 24H24V14Z" fill="#0F5182"/>
    <path fill-rule="evenodd" clip-rule="evenodd" d="M7.2 7H16.8C17.46 7 18 7.5625 18 8.25V15.75C18 16.4375 17.46 17 16.8 17H7.2C6.54 17 6 16.4375 6 15.75V8.25C6 7.5625 6.54 7 7.2 7ZM12.6359 12.2125L16.5599 9.65629C16.7099 9.55629 16.7999 9.38754 16.7999 9.20629C16.7999 8.78754 16.3619 8.53754 16.0199 8.75629L11.9999 11.375L7.97993 8.75629C7.63793 8.53754 7.19993 8.78754 7.19993 9.20629C7.19993 9.38754 7.28993 9.55629 7.43993 9.65629L11.3639 12.2125C11.7539 12.4688 12.2459 12.4688 12.6359 12.2125Z" fill="white"/>
  </g>

  <g class="sprite" id="mongodb">
    <rect width="24" height="24" fill="#46483E"/>
    <path d="M12 22V21.5V2L24 14V24H14L12 22Z" fill="#2D2E28"/>
    <path d="M12.4922 22.0001L11.8958 21.8223C11.8958 21.8223 11.9752 19.108 10.8832 18.9173C10.1684 18.1687 10.9888 -13.0406 13.6017 18.8108C13.1059 19.037 12.7266 19.4268 12.543 19.8987C12.4446 20.5956 12.4276 21.3 12.4922 22.0001Z" fill="url(#paint0_linear)"/>
    <path d="M12.814 19.378C14.4021 18.3028 15.6182 16.8444 16.3212 15.1722C17.0241 13.5 17.1849 11.6827 16.785 9.93154C15.6175 5.29939 12.8529 3.77653 12.5551 3.1951C12.2982 2.83305 12.0788 2.45049 11.8999 2.05225L12.1199 14.9587C12.1199 14.9587 11.664 18.903 12.814 19.378Z" fill="url(#paint1_linear)"/>
    <path d="M11.5918 19.5493C11.5918 19.5493 6.7306 16.5714 7.01174 11.3036C7.03797 9.71547 7.44283 8.15091 8.19898 6.71559C8.95514 5.28027 10.045 4.00761 11.3949 2.98357C11.5526 2.86303 11.678 2.71191 11.7615 2.54156C11.8449 2.3712 11.8844 2.18605 11.8769 2C12.1795 2.58572 12.1303 10.745 12.1621 11.6993C12.2852 15.4114 11.9325 18.8486 11.5918 19.5493Z" fill="url(#paint2_linear)"/>
    <defs>
      <linearGradient id="paint0_linear" x1="8.48284" y1="12.1803" x2="15.1748" y2="14.7052" gradientUnits="userSpaceOnUse">
        <stop offset="0.231" stop-color="#999875"/>
        <stop offset="0.563" stop-color="#9B9977"/>
        <stop offset="0.683" stop-color="#A09F7E"/>
        <stop offset="0.768" stop-color="#A9A889"/>
        <stop offset="0.837" stop-color="#B7B69A"/>
        <stop offset="0.896" stop-color="#C9C7B0"/>
        <stop offset="0.948" stop-color="#DEDDCB"/>
        <stop offset="0.994" stop-color="#F8F6EB"/>
        <stop offset="1" stop-color="#FBF9EF"/>
      </linearGradient>
      <linearGradient id="paint1_linear" x1="10.9961" y1="1.96002" x2="13.4593" y2="19.0624" gradientUnits="userSpaceOnUse">
        <stop stop-color="#48A547"/>
        <stop offset="1" stop-color="#3F9143"/>
      </linearGradient>
      <linearGradient id="paint2_linear" x1="6.59358" y1="11.825" x2="14.5373" y2="8.86707" gradientUnits="userSpaceOnUse">
        <stop stop-color="#41A247"/>
        <stop offset="0.352" stop-color="#4BA74B"/>
        <stop offset="0.956" stop-color="#67B554"/>
        <stop offset="1" stop-color="#69B655"/>
      </linearGradient>
    </defs>
  </g>

  <g class="sprite" id="nodejs">
    <rect width="24" height="24" fill="#46483E"/>
    <path d="M11.5 24L4 16.5L4.5 8.5L5.5 7L12 3.5L19 7L24 12V24H11.5Z" fill="#2D2E28"/>
    <path d="M11.9577 21C11.7037 21 11.478 20.9437 11.2522 20.8028L9.05115 19.507C8.71252 19.3099 8.88183 19.2535 8.99471 19.2254C9.44621 19.0563 9.53086 19.0282 9.98236 18.7746C10.0388 18.7465 10.0952 18.7465 10.1517 18.8028L11.8448 19.8169C11.9012 19.8451 11.9859 19.8451 12.0423 19.8169L18.6455 16.0141C18.7019 15.9859 18.7584 15.9014 18.7584 15.8451V8.23944C18.7584 8.15493 18.7302 8.09859 18.6455 8.07042L12.0705 4.23944C12.0141 4.21127 11.9295 4.21127 11.873 4.23944L5.26984 8.01408C5.2134 8.04225 5.15697 8.12676 5.15697 8.1831V15.7887C5.15697 15.8451 5.18519 15.9296 5.26984 15.9577L7.07584 17C8.06349 17.4789 8.65608 16.9155 8.65608 16.3239V8.85915C8.65608 8.74648 8.74074 8.66197 8.85362 8.66197H9.70018C9.81305 8.66197 9.89771 8.74648 9.89771 8.85915V16.3521C9.89771 17.6761 9.19224 18.4084 7.95062 18.4084C7.55556 18.4084 7.27337 18.4084 6.42681 17.9859L4.70547 17C4.28219 16.7465 4 16.2958 4 15.7887V8.1831C4 7.70423 4.25397 7.22535 4.70547 6.97183L11.3086 3.16901C11.7319 2.94366 12.2963 2.94366 12.6914 3.16901L19.2945 6.97183C19.7178 7.22535 20 7.67606 20 8.1831V15.7887C20 16.2676 19.746 16.7465 19.2945 17L12.6631 20.831C12.4374 20.9437 12.2116 21 11.9577 21Z" fill="#81CF08"/>
    <path d="M14.0177 15.761C11.1394 15.761 10.5186 14.437 10.5186 13.3384C10.5186 13.2258 10.6032 13.1413 10.7161 13.1413H11.5626C11.6473 13.1413 11.732 13.1976 11.7602 13.3103C11.8731 14.1835 12.2681 14.6061 14.0177 14.6061C15.4004 14.6061 15.993 14.2962 15.993 13.5638C15.993 13.1413 15.8237 12.8314 13.6508 12.6061C11.8448 12.437 10.7161 12.0427 10.7161 10.5779C10.7161 9.25394 11.8448 8.46521 13.7355 8.46521C15.8519 8.46521 16.896 9.1976 17.0371 10.7751C17.0371 10.8314 17.0089 10.8877 16.9806 10.9159C16.9524 10.9441 16.896 10.9723 16.8395 10.9723H15.993C15.9083 10.9723 15.8237 10.9159 15.7954 10.8314C15.5979 9.93 15.09 9.62014 13.7355 9.62014C12.2117 9.62014 12.0424 10.1554 12.0424 10.5497C12.0424 11.0286 12.2399 11.1694 14.2999 11.4511C16.3316 11.7046 17.291 12.099 17.291 13.5075C17.291 14.9441 16.1059 15.761 14.0177 15.761Z" fill="#81CF08"/>
  </g>

  <g class="sprite" id="photoshop">
    <rect width="24" height="24" fill="#2D265A"/>
    <path d="M4 6V18L10 24H24V22L8 6H4Z" fill="#1A1633"/>
    <path d="M24 14L19 9H15.5L13.5 17.5L20 24H24V14Z" fill="#191633"/>
    <path fill-rule="evenodd" clip-rule="evenodd" d="M4 6.18889V17.6222C4 17.7222 4.04432 17.7667 4.13295 17.7667H6.23807H6.28239C6.35994 17.7556 6.41534 17.6889 6.40426 17.6111V14.0444C6.61477 14.0444 6.76989 14.0444 6.88068 14.0556C6.99148 14.0667 7.16875 14.0667 7.43466 14.0667C8.34318 14.0667 9.17415 13.9667 9.92756 13.6889C10.6477 13.4222 11.2682 12.9556 11.7114 12.3333C12.1546 11.7111 12.3761 10.9222 12.3761 9.96667C12.3761 9.46667 12.2875 8.98889 12.1213 8.52222C11.944 8.04444 11.6671 7.61111 11.3125 7.25556C10.8915 6.84444 10.3818 6.53333 9.82785 6.34444C9.20739 6.11111 8.45398 6 7.54546 6C7.21307 6 6.88068 6 6.53722 6.01111C6.3714 6.01648 6.21075 6.01925 6.05526 6.02194C5.88868 6.02481 5.72802 6.02759 5.5733 6.03333C5.42821 6.03872 5.28833 6.0415 5.1524 6.04419C5.00807 6.04706 4.86819 6.04983 4.73125 6.05556C4.47642 6.06667 4.29915 6.06667 4.1108 6.06667C4.03324 6.06667 4 6.11111 4 6.18889ZM6.41602 11.9445V8.21117C6.49357 8.20006 6.64869 8.18894 6.87028 8.20006C7.08079 8.18894 7.33562 8.18894 7.62369 8.18894C8.07795 8.17783 8.52113 8.2445 8.93107 8.41117C9.25238 8.53339 9.51829 8.75561 9.70664 9.0445C9.88392 9.3445 9.97255 9.68894 9.96147 10.0334C9.96147 10.5223 9.85068 10.9001 9.61801 11.1778C9.37426 11.4556 9.06403 11.6667 8.70948 11.7667C8.29954 11.9001 7.86744 11.9667 7.43533 11.9667H6.84812C6.7247 11.9667 6.59174 11.9571 6.44924 11.9469C6.43822 11.9461 6.42715 11.9453 6.41602 11.9445Z" fill="#88C3FD"/>
    <path d="M19.2896 11.2667C18.9572 11.0889 18.6027 10.9667 18.226 10.8889C17.816 10.8001 17.4061 10.7445 16.9851 10.7445C16.7635 10.7334 16.5308 10.7667 16.3203 10.8223C16.1762 10.8556 16.0544 10.9334 15.9768 11.0445C15.9214 11.1334 15.8882 11.2445 15.8882 11.3445C15.8882 11.4445 15.9325 11.5445 15.999 11.6334C16.0987 11.7556 16.2316 11.8556 16.3757 11.9334C16.6305 12.0667 16.8964 12.1889 17.1623 12.3001C17.7606 12.5001 18.3368 12.7778 18.8686 13.1112C19.2342 13.3445 19.5333 13.6556 19.7439 14.0334C19.9211 14.3889 20.0098 14.7778 19.9987 15.1778C20.0098 15.7001 19.8547 16.2223 19.5666 16.6556C19.2564 17.1001 18.8243 17.4445 18.3257 17.6445C17.7828 17.8778 17.118 18.0001 16.3203 18.0001C15.8106 18.0001 15.312 17.9556 14.8135 17.8556C14.4257 17.7889 14.0379 17.6667 13.6833 17.5001C13.6058 17.4556 13.5504 17.3778 13.5615 17.2889V15.3556C13.5615 15.3223 13.5725 15.2778 13.6058 15.2556C13.639 15.2334 13.6723 15.2445 13.7055 15.2667C14.1376 15.5223 14.5919 15.7001 15.0794 15.8112C15.5004 15.9223 15.9436 15.9778 16.3868 15.9778C16.8078 15.9778 17.1069 15.9223 17.3064 15.8223C17.4836 15.7445 17.6055 15.5556 17.6055 15.3556C17.6055 15.2001 17.5169 15.0556 17.3396 14.9112C17.1623 14.7667 16.7967 14.6001 16.2538 14.3889C15.6887 14.1889 15.168 13.9223 14.6805 13.5889C14.337 13.3445 14.049 13.0223 13.8385 12.6445C13.6612 12.2889 13.5725 11.9001 13.5836 11.5112C13.5836 11.0334 13.7166 10.5778 13.9603 10.1667C14.2373 9.72228 14.6473 9.36673 15.1237 9.1445C15.6444 8.87784 16.2981 8.75562 17.0848 8.75562C17.539 8.75562 18.0044 8.78895 18.4586 8.85562C18.791 8.90006 19.1123 8.98895 19.4115 9.11117C19.4558 9.12228 19.5001 9.16673 19.5223 9.21117C19.5333 9.25562 19.5444 9.30006 19.5444 9.3445V11.1556C19.5444 11.2001 19.5223 11.2445 19.489 11.2667C19.3893 11.2889 19.3339 11.2889 19.2896 11.2667Z" fill="#88C3FD"/>
  </g>

  <g class="sprite" id="sass">
    <path d="M23.993 0H0.00703125C0.003148 0 0 0.003148 0 0.00703125V23.993C0 23.9969 0.003148 24 0.00703125 24H23.993C23.9969 24 24 23.9969 24 23.993V0.00703125C24 0.003148 23.9969 0 23.993 0Z" fill="#CC6699"/>
    <path d="M10 24L6 20L6.5 18L8.5 16L10 15L8 13.5L6 11L6.5 8.5L12 5L18.5 4.5L24 10.107V24H10Z" fill="#B3477D"/>
    <path d="M12.0935 4.12493C7.59346 5.6718 4.68721 8.81243 4.96846 10.6874C5.24971 12.5624 8.06221 14.0624 9.32783 15.0468C7.68721 15.8906 5.62471 17.1562 5.67158 18.7968C5.76533 21.0468 8.20283 20.3437 9.23408 19.6874C10.2653 19.0312 11.2966 17.2031 10.6403 15.2812C12.0935 14.9062 13.3591 15.3749 13.7341 15.6562C15.1872 16.6874 14.4372 17.8593 13.9216 18.0468C13.406 18.2343 13.7341 18.3281 14.0622 18.2343C14.3903 18.1406 15.0935 17.6718 15.0935 16.8749C15.0935 14.8593 12.9372 13.9218 10.2653 14.6249C8.71846 12.9843 6.60908 12.2343 6.70283 10.4531C6.74971 9.79681 6.98408 8.1093 11.156 5.99993C15.3278 3.89056 18.281 4.73431 17.906 6.65618C17.3435 9.56243 12.281 11.5312 10.4997 9.84368C10.406 9.65618 10.0778 9.51556 10.2653 10.0312C11.2028 12.3749 18.7966 11.2968 19.1247 6.32805C19.2185 3.70306 15.4216 2.99993 12.0935 4.12493ZM8.06221 19.1249C6.89033 19.4999 6.93721 18.7499 6.98408 18.4687C7.12471 17.6718 7.78096 16.6874 9.74971 15.7031C10.3122 17.4843 9.04658 18.8437 8.06221 19.1249Z" fill="white"/>
  </g>

  <g class="sprite" id="typescript">
    <rect width="24" height="24" fill="#007ACC"/>
    <path d="M9 12V22L11 24H24V22L14 12H9Z" fill="#005B99"/>
    <path d="M24 16L20.5 12.5H17V21L24 24V16Z" fill="#005B99"/>
    <path d="M19.3835 12.0832C19.9296 12.2037 20.4259 12.4752 20.8099 12.8636C21.0213 13.0729 21.205 13.3058 21.3571 13.5574C21.3571 13.5851 20.3721 14.2182 19.772 14.572C19.7501 14.5858 19.6625 14.4957 19.5659 14.3586C19.4563 14.1789 19.3007 14.0285 19.1134 13.9214C18.9262 13.8144 18.7135 13.7542 18.4951 13.7464C17.8038 13.7013 17.3587 14.0465 17.3624 14.6136C17.3567 14.7548 17.3907 14.8949 17.4609 15.0194C17.6123 15.3195 17.895 15.4981 18.7815 15.8623C20.4141 16.5301 21.1127 16.9706 21.5468 17.5967C22.032 18.2904 22.1396 19.4108 21.8113 20.2398C21.4465 21.1417 20.5527 21.7539 19.2886 21.9568C18.7113 22.0197 18.1279 22.0139 17.5521 21.9395C16.6695 21.8012 15.8566 21.3983 15.2319 20.7896C15.0221 20.5693 14.6135 19.9953 14.639 19.9537C14.7056 19.9067 14.7757 19.8643 14.8488 19.827L15.6934 19.3831L16.3482 19.0223L16.485 19.2148C16.7159 19.5288 17.0097 19.7964 17.3496 20.0022C18.0792 20.3664 19.0752 20.3161 19.5677 19.8947C19.733 19.7403 19.8362 19.5356 19.8592 19.3163C19.8822 19.097 19.8236 18.877 19.6935 18.6945C19.5111 18.4534 19.1463 18.2505 18.1267 17.8273C16.9501 17.3452 16.443 17.0469 15.9797 16.5717C15.6905 16.2581 15.4769 15.8881 15.3541 15.4877C15.2624 15.0303 15.2489 14.5618 15.3139 14.1002C15.5565 13.0197 16.4084 12.2653 17.6524 12.0416C18.2285 11.9738 18.8121 11.989 19.3835 12.0866V12.0832ZM14.0316 12.992V13.88H11.0712V21.8979H8.97164V13.8782H6.00387V13.0111C5.99463 12.712 6.00194 12.4127 6.02576 12.1144C6.04035 12.0988 7.84984 12.0988 10.0387 12.0988H14.0207L14.0316 12.992Z" fill="white"/>
  </g>

  <g class="sprite" id="vscode">
    <path d="M21.7574 3.77245L17.4329 1.69045C17.1887 1.57269 16.9139 1.53384 16.6466 1.57926C16.3793 1.62468 16.1328 1.75213 15.9411 1.94395L1.7849 14.8499C1.61314 15.0058 1.51033 15.2235 1.49908 15.4551C1.48783 15.6868 1.56906 15.9134 1.7249 16.0852C1.74365 16.1054 1.7624 16.1249 1.78265 16.1429L2.9384 17.1929C3.08942 17.3304 3.28382 17.4106 3.48782 17.4196C3.69183 17.4287 3.89256 17.366 4.05515 17.2424L21.1064 4.31245C21.2352 4.21471 21.3887 4.15487 21.5497 4.13966C21.7106 4.12444 21.8726 4.15446 22.0175 4.22632C22.1623 4.29819 22.2842 4.40906 22.3694 4.54644C22.4546 4.68382 22.4998 4.84227 22.4999 5.00395V4.9537C22.4999 4.70687 22.4302 4.46506 22.2988 4.25609C22.1675 4.04712 21.9798 3.87948 21.7574 3.77245Z" fill="#0065A9"/>
    <path d="M21.7574 20.2275L17.4329 22.3102C17.1886 22.4277 16.9139 22.4663 16.6467 22.4209C16.3795 22.3755 16.1329 22.2483 15.9411 22.0567L1.7849 9.14999C1.61314 8.99414 1.51033 8.77644 1.49908 8.54479C1.48783 8.31313 1.56906 8.0865 1.7249 7.91474C1.74365 7.89449 1.7624 7.87499 1.78265 7.85699L2.9384 6.80699C3.08958 6.66896 3.28442 6.58839 3.48892 6.57935C3.69343 6.5703 3.89463 6.63335 4.0574 6.75749L21.1064 19.6875C21.2352 19.7852 21.3887 19.8451 21.5497 19.8603C21.7106 19.8755 21.8726 19.8455 22.0175 19.7736C22.1623 19.7017 22.2842 19.5909 22.3694 19.4535C22.4546 19.3161 22.4998 19.1577 22.4999 18.996V19.05C22.4991 19.2962 22.429 19.5371 22.2977 19.7454C22.1664 19.9536 21.9792 20.1207 21.7574 20.2275Z" fill="#007ACC"/>
    <path d="M17.4332 22.3103C17.1889 22.4277 16.9142 22.4664 16.647 22.4209C16.3798 22.3755 16.1333 22.2483 15.9415 22.0568C16.0492 22.1631 16.1859 22.2352 16.3344 22.2642C16.4829 22.2931 16.6367 22.2776 16.7764 22.2195C16.9162 22.1615 17.0357 22.0635 17.12 21.9378C17.2042 21.8121 17.2496 21.6643 17.2502 21.513V2.48702C17.2504 2.33498 17.2054 2.18633 17.1209 2.0599C17.0365 1.93346 16.9164 1.83492 16.776 1.77678C16.6355 1.71863 16.4809 1.70348 16.3318 1.73325C16.1827 1.76302 16.0458 1.83638 15.9385 1.94402C16.1301 1.75227 16.3766 1.62481 16.6439 1.57926C16.9111 1.53372 17.1859 1.57233 17.4302 1.68977L21.754 3.76877C21.9771 3.87527 22.1655 4.04268 22.2976 4.25169C22.4296 4.4607 22.4999 4.70279 22.5002 4.95002V19.05C22.5003 19.297 22.4305 19.5391 22.299 19.7482C22.1676 19.9573 21.9796 20.125 21.757 20.232L17.4332 22.3103Z" fill="#1F9CF0"/>
  </g>

  <g class="sprite" id="whatsapp">
    <rect width="24" height="24" fill="#25D366"/>
    <path d="M7 16L5 19L10 24H24V14.5L15.5 6L12 5.5L7.5 7.5L5.5 11L7 16Z" fill="#1CA14E"/>
    <path fill-rule="evenodd" clip-rule="evenodd" d="M12.0293 18.8798H12.0264C10.8598 18.8794 9.71344 18.5881 8.69529 18.0354L5 19.0001L5.98892 15.4053C5.37891 14.3532 5.05792 13.1597 5.05844 11.937C5.05997 8.11206 8.18704 5.00012 12.0292 5.00012C13.894 5.00092 15.6442 5.72339 16.9603 7.0347C18.2763 8.34594 19.0007 10.0889 19 11.9425C18.9985 15.7666 15.8726 18.8783 12.0293 18.8798ZM8.86648 16.7796L9.07804 16.9046C9.96759 17.4299 10.9873 17.7079 12.0269 17.7083H12.0293C15.2227 17.7083 17.8217 15.1216 17.823 11.9422C17.8236 10.4015 17.2215 8.95283 16.1277 7.86293C15.0338 6.77302 13.5791 6.1725 12.0316 6.17196C8.83573 6.17196 6.23662 8.7584 6.23535 11.9375C6.2349 13.0271 6.54121 14.0881 7.12118 15.0062L7.25894 15.2243L6.67364 17.3521L8.86648 16.7796ZM15.3026 13.4361C15.4241 13.4945 15.5061 13.534 15.5411 13.5922C15.5847 13.6644 15.5847 14.0115 15.4396 14.4165C15.2944 14.8214 14.5986 15.1909 14.2639 15.2407C13.9638 15.2853 13.5841 15.3039 13.1669 15.172C12.9139 15.0921 12.5895 14.9854 12.1739 14.8068C10.5411 14.1052 9.43759 12.5301 9.22903 12.2325C9.21442 12.2116 9.20421 12.197 9.1985 12.1895L9.1971 12.1876C9.10493 12.0652 8.4873 11.2451 8.4873 10.3963C8.4873 9.59785 8.8814 9.17933 9.06281 8.98669C9.07524 8.9735 9.08667 8.96136 9.0969 8.95023C9.25655 8.77669 9.44526 8.7333 9.56137 8.7333C9.67747 8.7333 9.79371 8.73437 9.89519 8.73944C9.90771 8.74007 9.92074 8.73999 9.9342 8.73991C10.0357 8.73932 10.1622 8.73858 10.2871 9.037C10.3351 9.15185 10.4054 9.32211 10.4795 9.50169C10.6294 9.86481 10.795 10.266 10.8241 10.3241C10.8676 10.4108 10.8967 10.512 10.8386 10.6278C10.8299 10.6451 10.8218 10.6615 10.8141 10.6771C10.7705 10.7657 10.7385 10.8309 10.6644 10.9169C10.6353 10.9507 10.6053 10.9872 10.5752 11.0236C10.5153 11.0963 10.4553 11.1689 10.4032 11.2206C10.316 11.3071 10.2252 11.4008 10.3268 11.5744C10.4284 11.7479 10.778 12.3155 11.2958 12.7752C11.8524 13.2693 12.3361 13.4781 12.5813 13.584C12.6292 13.6046 12.668 13.6214 12.6964 13.6355C12.8706 13.7223 12.9722 13.7078 13.0738 13.5922C13.1754 13.4765 13.5092 13.086 13.6253 12.9125C13.7414 12.739 13.8575 12.7679 14.0171 12.8257C14.1768 12.8836 15.0332 13.3029 15.2073 13.3897C15.2413 13.4066 15.2731 13.4219 15.3026 13.4361Z" fill="#FDFDFD"/>
  </g>
</svg>
